<svg id="Capa_1" enable-background="new 0 0 512.331 512.331" height="512" viewBox="0 0 512.331 512.331" width="512" xmlns="http://www.w3.org/2000/svg"><g><path d="m493.283 259.909-11.445-13.128-.139-17.415c-.252-31.76-19.546-59.711-49.22-71.235l-16.497-6.315-8.196-15.32c-14.983-28.004-45.059-43.785-76.613-40.21l-17.306 1.962-14.411-9.779c-26.282-17.833-60.244-17.833-86.525 0l-14.412 9.779-17.305-1.962c-31.563-3.579-61.631 12.206-76.614 40.21l-8.187 15.302s-16.692 6.346-16.726 6.359c-29.605 11.498-48.899 39.449-49.152 71.209l-.139 17.443-11.345 13.1c-20.871 23.939-24.965 57.655-10.441 85.871l22.161 43.234c-.015 1.075-.041 33.225-.041 33.225 0 8.284 6.716 15 15 15h420.773c8.284 0 15-6.716 15-15 0 0-.026-32.141-.041-33.211l22.25-43.225c14.535-28.24 10.441-61.956-10.429-85.894zm-41.78 147.33h-390.773v-15c0-107.523 87.684-195 195.462-195 107.694 0 195.311 87.477 195.311 195zm25.535-75.167-2.454 4.767c-24.779-97.364-113.293-169.6-218.392-169.6-105.129 0-193.677 72.18-218.512 169.487l-2.385-4.653c-8.876-17.243-6.376-37.831 6.401-52.487l14.994-17.313c2.334-2.696 3.632-6.135 3.661-9.701l.183-22.967c.154-19.379 11.919-36.437 29.975-43.468l21.812-8.292c3.383-1.286 6.188-3.753 7.896-6.945l10.835-20.252c9.149-17.1 27.509-26.742 46.783-24.553l22.822 2.586c3.56.405 7.147-.48 10.112-2.492l19.006-12.897c16.048-10.89 36.788-10.89 52.834 0l19.006 12.897c2.965 2.011 6.549 2.897 10.112 2.492l22.823-2.586c19.273-2.185 37.634 7.454 46.783 24.553l10.834 20.252c1.702 3.181 4.494 5.643 7.864 6.933l21.653 8.289c18.079 7.021 29.86 24.089 30.015 43.482l.182 22.968c.029 3.583 1.339 7.037 3.693 9.738l15.094 17.313c12.745 14.618 15.245 35.206 6.37 52.449z"/><circle cx="196.193" cy="332.39" r="15"/><circle cx="196.193" cy="272.087" r="15"/><circle cx="136.193" cy="332.39" r="15"/></g></svg>